<?xml version="1.0" encoding="utf-8"?>
<!-- Generator: Adobe Illustrator 25.4.1, SVG Export Plug-In . SVG Version: 6.00 Build 0)  -->
<svg version="1.1" id="레이어_1" xmlns="http://www.w3.org/2000/svg" xmlns:xlink="http://www.w3.org/1999/xlink" x="0px"
	 y="0px" viewBox="0 0 682 682" style="enable-background:new 0 0 682 682;" xml:space="preserve">
<style type="text/css">
	.st0{fill:#FFFFFF;}
	.st1{fill:#662FD1;}
</style>
<circle class="st0" cx="341" cy="341" r="341"/>
<path class="st1" d="M515.9,175l-0.3-1.1L514,174c-8.4-4.3-18-6.8-28.1-6.8H195.5c-34.1,0-61.8,27.7-61.8,61.8v177.7
	c0,31.7,24.1,57.9,54.9,61.4v74.3c0,2.5,1.4,4.8,3.6,6c1,0.5,2,0.8,3.1,0.8c1.3,0,2.7-0.4,3.8-1.2l114.1-79.4h172.5
	c34.1,0,61.8-27.7,61.8-61.8V228.9C547.6,205.8,534.8,185.6,515.9,175z"/>
</svg>
