<svg xmlns="http://www.w3.org/2000/svg" xmlns:xlink="http://www.w3.org/1999/xlink" viewBox="0 0 517.63 517.49"><defs><style>.cls-1{isolation:isolate;}.cls-2,.cls-3{opacity:0.5;}.cls-2{fill:url(#linear-gradient);}.cls-3{fill:url(#linear-gradient-2);}.cls-4{fill:url(#linear-gradient-3);}.cls-5{fill:url(#linear-gradient-4);}.cls-6{fill:#fff;}.cls-7{fill:url(#무제_그라디언트_686);}.cls-8{fill:url(#무제_그라디언트_651);}.cls-9{fill:url(#무제_그라디언트_653);}.cls-10{fill:url(#무제_그라디언트_538);}.cls-11{fill:url(#무제_그라디언트_687);}.cls-12{fill:url(#무제_그라디언트_686-2);}.cls-13{opacity:0.14;}.cls-13,.cls-16{mix-blend-mode:overlay;}.cls-14{opacity:0.7;fill:url(#무제_그라디언트_767);}.cls-15{fill:url(#무제_그라디언트_686-3);}.cls-16{opacity:0.33;fill:url(#무제_그라디언트_511);}.cls-17{fill:url(#무제_그라디언트_654);}</style><linearGradient id="linear-gradient" x1="-141.26" y1="142.68" x2="-447.53" y2="466.51" gradientTransform="matrix(0.71, 0.71, 0.71, -0.71, 312.35, 764.76)" gradientUnits="userSpaceOnUse"><stop offset="0" stop-color="#fff"/><stop offset="0.09" stop-color="#fff" stop-opacity="0.89"/><stop offset="0.34" stop-color="#fff" stop-opacity="0.58"/><stop offset="0.57" stop-color="#fff" stop-opacity="0.33"/><stop offset="0.77" stop-color="#fff" stop-opacity="0.15"/><stop offset="0.91" stop-color="#fff" stop-opacity="0.04"/><stop offset="1" stop-color="#fff" stop-opacity="0"/></linearGradient><linearGradient id="linear-gradient-2" x1="-753.25" y1="-441.61" x2="-1059.53" y2="-117.78" gradientTransform="matrix(0.24, 0.71, 0.24, -0.71, 622.71, 795.3)" xlink:href="#linear-gradient"/><linearGradient id="linear-gradient-3" x1="-7.74" y1="542.22" x2="-7.74" y2="690.43" gradientTransform="matrix(-0.71, 0.71, 0.71, 0.71, -189.78, -177.83)" gradientUnits="userSpaceOnUse"><stop offset="0" stop-color="#ffde55"/><stop offset="0.37" stop-color="#ffe061" stop-opacity="0.62"/><stop offset="1" stop-color="#ffe474" stop-opacity="0"/></linearGradient><linearGradient id="linear-gradient-4" x1="-7.45" y1="562.18" x2="-7.45" y2="624.71" gradientTransform="matrix(-0.71, 0.71, 0.71, 0.71, -189.78, -177.83)" gradientUnits="userSpaceOnUse"><stop offset="0" stop-color="#ff4e00"/><stop offset="1" stop-color="#ff621d" stop-opacity="0"/></linearGradient><linearGradient id="무제_그라디언트_686" x1="23.22" y1="82.68" x2="-52.29" y2="7.17" gradientTransform="matrix(-1, 0, 0, 1, 11.17, 0)" gradientUnits="userSpaceOnUse"><stop offset="0" stop-color="#484bbf"/><stop offset="0.17" stop-color="#4c4cc0"/><stop offset="0.34" stop-color="#5750c3"/><stop offset="0.5" stop-color="#6b57c7"/><stop offset="0.67" stop-color="#8660ce"/><stop offset="0.83" stop-color="#a96dd6"/><stop offset="0.98" stop-color="#d37be0"/><stop offset="1" stop-color="#d87de1"/></linearGradient><linearGradient id="무제_그라디언트_651" x1="1208.32" y1="206.92" x2="1399.26" y2="206.92" gradientTransform="matrix(1.15, -0.15, -0.15, 1.15, -1235.19, 79.58)" gradientUnits="userSpaceOnUse"><stop offset="0" stop-color="#b3238f"/><stop offset="1" stop-color="#ff8268"/></linearGradient><linearGradient id="무제_그라디언트_653" x1="684.41" y1="727.65" x2="875.35" y2="727.65" gradientTransform="matrix(-0.15, 1.15, 1.15, -0.15, -597.04, -558.6)" gradientUnits="userSpaceOnUse"><stop offset="0" stop-color="#b3238f"/><stop offset="0.17" stop-color="#b92b8c"/><stop offset="0.44" stop-color="#cb4183"/><stop offset="0.77" stop-color="#e76474"/><stop offset="1" stop-color="#ff8268"/></linearGradient><linearGradient id="무제_그라디언트_538" x1="973.7" y1="963.8" x2="1055.48" y2="963.8" gradientTransform="translate(-875.36 -824.29)" gradientUnits="userSpaceOnUse"><stop offset="0" stop-color="#8469ff"/><stop offset="1" stop-color="#fff"/></linearGradient><linearGradient id="무제_그라디언트_687" x1="967.82" y1="1073.19" x2="1061.36" y2="1073.19" gradientTransform="translate(-798.01 -856.33)" gradientUnits="userSpaceOnUse"><stop offset="0" stop-color="#484bbf"/><stop offset="0.17" stop-color="#5a51c3"/><stop offset="0.5" stop-color="#8861ce"/><stop offset="0.96" stop-color="#d17bdf"/><stop offset="1" stop-color="#d87de1"/></linearGradient><linearGradient id="무제_그라디언트_686-2" x1="973.7" y1="847.83" x2="1055.48" y2="847.83" gradientTransform="translate(-957.36 -790.32)" xlink:href="#무제_그라디언트_686"/><linearGradient id="무제_그라디언트_767" x1="66.85" y1="88.19" x2="108.97" y2="88.19" gradientUnits="userSpaceOnUse"><stop offset="0" stop-color="#fff"/><stop offset="1" stop-color="#efedff"/></linearGradient><linearGradient id="무제_그라디언트_686-3" x1="-61.36" y1="103.56" x2="-92.11" y2="72.82" xlink:href="#무제_그라디언트_686"/><linearGradient id="무제_그라디언트_511" x1="1014.93" y1="860.25" x2="1014.39" y2="854.16" gradientTransform="translate(-951.32 -792.83)" gradientUnits="userSpaceOnUse"><stop offset="0" stop-color="#8c32fb"/><stop offset="0.17" stop-color="#8c37fb"/><stop offset="0.38" stop-color="#8d47fc"/><stop offset="0.62" stop-color="#8e61fd"/><stop offset="0.87" stop-color="#9084fe"/><stop offset="1" stop-color="#919aff"/></linearGradient><linearGradient id="무제_그라디언트_654" x1="-102.84" y1="109.7" x2="-245.71" y2="252.57" gradientTransform="matrix(-0.71, -0.71, -0.71, 0.71, 191.31, -70.6)" gradientUnits="userSpaceOnUse"><stop offset="0" stop-color="#b3238f"/><stop offset="0.19" stop-color="#b7288d"/><stop offset="0.4" stop-color="#c23687"/><stop offset="0.63" stop-color="#d44d7e"/><stop offset="0.87" stop-color="#ee6c71"/><stop offset="1" stop-color="#ff8268"/></linearGradient></defs><g class="cls-1"><g id="레이어_2" data-name="레이어 2"><g id="레이어_1-2" data-name="레이어 1"><rect class="cls-2" x="229.21" y="131.66" width="181.88" height="376.69" transform="translate(772.81 319.91) rotate(135)"/><rect class="cls-3" x="302.75" y="144.3" width="62.63" height="375.72" transform="translate(805.16 330.82) rotate(135)"/><path class="cls-4" d="M205,262.39c15.73,15.38,118.81,60.42,118.81,60.42s-47.36-102-63.1-117.41a39.85,39.85,0,1,0-55.71,57Z"/><path class="cls-5" d="M214.8,245.42c8.15,8,61.57,31.32,61.57,31.32s-24.55-52.87-32.7-60.85a20.65,20.65,0,0,0-28.87,29.53Z"/><path class="cls-6" d="M21.59,250.26l1.09.47a4.07,4.07,0,0,0,3.21,0l1.09-.47a.64.64,0,0,1,.84.84l-.47,1.09a4.07,4.07,0,0,0,0,3.21l.47,1.09a.64.64,0,0,1-.84.84l-1.09-.47a4.07,4.07,0,0,0-3.21,0l-1.09.47a.64.64,0,0,1-.84-.84l.47-1.09a4.07,4.07,0,0,0,0-3.21l-.47-1.09A.64.64,0,0,1,21.59,250.26Z"/><path class="cls-7" d="M22.62.36,5.19,0A5.09,5.09,0,0,0,0,5.17L.27,22.62a89.58,89.58,0,0,0,26.23,62L40.09,98.2,97.92,40.37,84.13,26.58A89.57,89.57,0,0,0,22.62.36Z"/><path class="cls-8" d="M220.84,178.34c23-15.67,48.74-20.87,76.1-19.44A45.4,45.4,0,0,0,333,144.37l.87-1L288,97.52C275.43,85,257.32,78.9,237.15,80.46L125.58,89.09Z"/><path class="cls-9" d="M174.64,221.32c-15.67,23.05-20.86,48.74-19.44,76.1a45.4,45.4,0,0,1-14.53,36.09l-.95.87-45.9-45.93C81.28,275.91,75.2,257.8,76.76,237.63l8.63-111.57Z"/><rect class="cls-10" x="98.33" y="22.17" width="81.79" height="234.65" transform="translate(-57.86 139.3) rotate(-45)"/><rect class="cls-11" x="169.8" y="204.32" width="93.54" height="25.05" transform="translate(-89.9 216.65) rotate(-45)"/><rect class="cls-12" x="16.32" y="50.18" width="81.79" height="14.63" transform="translate(-23.9 57.3) rotate(-45)"/><g class="cls-13"><circle cx="91.11" cy="91.39" r="21.74"/></g><circle class="cls-14" cx="87.91" cy="88.19" r="21.06"/><path class="cls-15" d="M87.91,72.49a15.71,15.71,0,1,1-11.1,4.6,15.56,15.56,0,0,1,11.1-4.6m0-6a21.74,21.74,0,1,0,15.37,6.37,21.65,21.65,0,0,0-15.37-6.37Z"/><rect class="cls-16" x="22.37" y="62.31" width="81.79" height="2.46" transform="translate(-26.4 63.34) rotate(-45)"/><ellipse class="cls-17" cx="186.46" cy="182.14" rx="7.71" ry="97.6" transform="translate(-74.18 185.19) rotate(-45)"/></g></g></g></svg>