<?xml version="1.0" encoding="utf-8"?>
<!-- Generator: Adobe Illustrator 24.2.1, SVG Export Plug-In . SVG Version: 6.00 Build 0)  -->
<svg version="1.1" id="레이어_1" xmlns="http://www.w3.org/2000/svg" xmlns:xlink="http://www.w3.org/1999/xlink" x="0px"
	 y="0px" viewBox="0 0 50 50" style="enable-background:new 0 0 50 50;" xml:space="preserve">
<style type="text/css">
	.st0{fill:#662FD1;}
	.st1{fill:#FFFFFF;}
</style>
<circle class="st0" cx="25" cy="25" r="25"/>
<g>
	<g>
		<path class="st1" d="M35.6,36.6H14.4c-3.1,0-5.6-2.5-5.6-5.6V19c0-3.1,2.5-5.6,5.6-5.6h21.2c3.1,0,5.6,2.5,5.6,5.6v12
			C41.2,34.1,38.7,36.6,35.6,36.6z"/>
		<path class="st0" d="M35.6,38.1H14.4c-3.9,0-7.1-3.2-7.1-7.1V19c0-3.9,3.2-7.1,7.1-7.1h21.2c3.9,0,7.1,3.2,7.1,7.1v12
			C42.7,34.9,39.5,38.1,35.6,38.1z M14.4,14.9c-2.3,0-4.1,1.8-4.1,4.1v12c0,2.3,1.8,4.1,4.1,4.1h21.2c2.3,0,4.1-1.8,4.1-4.1V19
			c0-2.3-1.8-4.1-4.1-4.1H14.4z"/>
	</g>
	<path class="st0" d="M25,28.7c-0.8,0-1.6-0.3-2.2-0.8L8.2,15.2c-0.7-0.6-0.7-1.6-0.2-2.3c0.6-0.7,1.6-0.7,2.3-0.2l14.6,12.7
		c0.1,0.1,0.2,0.1,0.3,0l14.6-12.6c0.7-0.6,1.7-0.5,2.3,0.2s0.5,1.7-0.2,2.3L27.2,27.9C26.6,28.4,25.8,28.7,25,28.7z"/>
</g>
</svg>
