<?xml version="1.0" encoding="utf-8"?>
<!-- Generator: Adobe Illustrator 24.2.1, SVG Export Plug-In . SVG Version: 6.00 Build 0)  -->
<svg version="1.1" id="레이어_1" xmlns="http://www.w3.org/2000/svg" xmlns:xlink="http://www.w3.org/1999/xlink" x="0px"
	 y="0px" viewBox="0 0 50 50" style="enable-background:new 0 0 50 50;" xml:space="preserve">
<style type="text/css">
	.st0{fill:#662FD1;}
	.st1{fill:#FFFFFF;}
</style>
<circle class="st0" cx="25" cy="25" r="25"/>
<path class="st1" d="M31.1,44.7c0-0.7,0-3.2,0-6.4c0.1-1.6-0.4-3.2-1.5-4.3c5-0.6,10.3-2.5,10.3-11.5c0-2.3-0.8-4.5-2.3-6.2
	c0.7-2,0.6-4.2-0.2-6.2c0,0-1.9-0.6-6.2,2.4c-3.7-1-7.6-1-11.3,0c-4.3-3-6.2-2.4-6.2-2.4c-0.8,2-0.9,4.2-0.2,6.2
	c-1.5,1.7-2.4,3.9-2.3,6.2c0,8.9,5.3,10.9,10.3,11.5c-0.8,0.8-1.3,1.9-1.4,3.1c-1.3,0.6-4.6,1.6-6.6-1.9c-0.7-1.3-2-2.2-3.5-2.4
	c0,0-2.2,0-0.2,1.4c0,0,1.5,0.7,2.5,3.4c0,0,1.3,4.5,7.6,3.1c0,1.9,0,3.3,0,4c0,0.5-0.2,1-0.9,1.1c2.1,0.6,4.2,1,6.5,1
	s4.6-0.4,6.7-1C31.4,45.8,31.1,45.2,31.1,44.7z"/>
</svg>
