<svg xmlns="http://www.w3.org/2000/svg" xmlns:xlink="http://www.w3.org/1999/xlink" viewBox="0 0 345.63 228.02"><defs><style>.cls-1{isolation:isolate;}.cls-2{fill:url(#무제_그라디언트_325);}.cls-3{fill:#ece7f2;opacity:0.5;mix-blend-mode:overlay;}</style><linearGradient id="무제_그라디언트_325" x1="33.18" y1="161.97" x2="298.01" y2="70.78" gradientTransform="matrix(-1, 0, 0, 1, 344.91, 0)" gradientUnits="userSpaceOnUse"><stop offset="0" stop-color="#6754cd"/><stop offset="0.38" stop-color="#5e5ed1"/><stop offset="1" stop-color="#b484af"/></linearGradient></defs><g class="cls-1"><g id="레이어_2" data-name="레이어 2"><g id="레이어_1-2" data-name="레이어 1"><path class="cls-2" d="M61.71,87.06c.77-3.15,1.67-6.3,2.73-9.43.58-1.73,1.21-3.44,1.86-5.12,1-2.62,2.13-5.17,3.32-7.67a114,114,0,0,1,214.71,71q-.81,4.14-1.94,8.27c-.58,2.1-1.21,4.19-1.92,6.28-1.17,3.49-2.51,6.89-4,10.18A114,114,0,0,1,61.71,87.06Z"/><path class="cls-3" d="M345.26,69.53c-3.42-10.18-30.36-11.25-70-4.69,1.19,2.5,2.3,5,3.32,7.67,14.2-2.47,22.88-2.64,23.78,0s-6.22,7.84-19.19,14.53c-22.53,11.62-62.75,27.83-109.38,43.53-41.94,14.13-80,24.79-105.4,30-19.09,3.9-31,4.71-32.1,1.57s8.83-9.66,26.21-18q-1.14-4.12-2-8.27C20.63,156-3.29,174.81.37,185.68c3.85,11.42,37.29,11.38,85,1.94,28.79-5.69,62.76-14.79,98.58-26.85,39.37-13.26,74.79-28,102.38-42.06C325.52,98.77,348.88,80.27,345.26,69.53Z"/></g></g></g></svg>